<?xml version="1.0" encoding="utf-8"?>
<!-- Generator: Adobe Illustrator 15.1.0, SVG Export Plug-In . SVG Version: 6.00 Build 0)  -->
<!DOCTYPE svg PUBLIC "-//W3C//DTD SVG 1.1//EN" "http://www.w3.org/Graphics/SVG/1.1/DTD/svg11.dtd">
<svg version="1.1" id="Layer_1" xmlns="http://www.w3.org/2000/svg" xmlns:xlink="http://www.w3.org/1999/xlink" x="0px" y="0px"
	 width="317px" height="349px" viewBox="0 0 317 349" enable-background="new 0 0 317 349" xml:space="preserve">
<g>
	<g>
		<path fill="#FFFFFF" d="M257,0H60C26.863,0,0,26.863,0,60v229c0,33.137,26.863,60,60,60h197c33.137,0,60-26.863,60-60V60
			C317,26.863,290.136,0,257,0z M84.5,31h148c8.008,0,14.5,6.492,14.5,14.5S240.507,60,232.5,60h-148C76.492,60,70,53.508,70,45.5
			S76.492,31,84.5,31z M57,311.5c-12.703,0-23-10.298-23-23s10.297-23,23-23s23,10.298,23,23S69.703,311.5,57,311.5z M260,311.5
			c-12.702,0-23-10.298-23-23s10.298-23,23-23c12.703,0,23,10.298,23,23S272.703,311.5,260,311.5z M283,205.5
			c0,13.807-11.193,25-25,25H59c-13.807,0-25-11.193-25-25v-90c0-13.807,11.193-25,25-25h199c13.807,0,25,11.193,25,25V205.5z"/>
	</g>
</g>
</svg>
